# AST/ASF file generated using VICON BodyLanguage
# -----------------------------------------------
:version 1.10
:name VICON
:units
  mass 1.0
  length 0.45
  angle deg
:documentation
   .ast/.asf automatically generated from VICON data using
   VICON BodyBuilder and BodyLanguage model FoxedUp or BRILLIANT.MOD
:root
   order TX TY TZ RX RY RZ
   axis XYZ
   position 0 0 0  
   orientation 0 0 0 
:bonedata
  begin
     id 1 
     name lhipjoint
     direction 0.561001 -0.76473 0.316963 
     length 2.4722 
     axis 0 0 0  XYZ
  end
  begin
     id 2 
     name lfemur
     direction 0.34202 -0.939693 0  
     length 7.59403  
     axis 0 0 20  XYZ
    dof rx ry rz
    limits (-160.0 20.0)
           (-70.0 70.0)
           (-60.0 70.0)
  end
  begin
     id 3 
     name ltibia
     direction 0.34202 -0.939693 0   
     length 7.89655   
     axis 0 0 20   XYZ
    dof rx
    limits (-10.0 170.0)
  end
  begin
     id 4 
     name lfoot
     direction 0.061296 -0.168409 0.98381   
     length 2.73287   
     axis -90 7.62852e-016 20   XYZ
    dof rx rz
    limits (-45.0 90.0)
           (-70.0 20.0)
  end
  begin
     id 5 
     name ltoes
     direction 1.53547e-011 -4.21984e-011 1   
     length 1.37057   
     axis -90 7.62852e-016 20   XYZ
    dof rx
    limits (-90.0 20.0)
  end
  begin
     id 6 
     name rhipjoint
     direction -0.559611 -0.765599 0.317323   
     length 2.46939  
     axis 0 0 0  XYZ 
  end
  begin
     id 7 
     name rfemur
     direction -0.34202 -0.939693 0   
     length 7.53712   
     axis 0 0 -20   XYZ
    dof rx ry rz
    limits (-160.0 20.0)
           (-70.0 70.0)
           (-70.0 60.0)
  end
  begin
     id 8 
     name rtibia
     direction -0.34202 -0.939693 0   
     length 8.12549   
     axis 0 0 -20   XYZ
    dof rx
    limits (-10.0 170.0)
 end
 begin
     id 9 
     name rfoot
     direction -0.066984 -0.184037 0.980634   
     length 2.67541  
     axis -90 -7.62852e-016 -20   XYZ
    dof rx rz
    limits (-45.0 90.0)
           (-20.0 70.0)
  end
  begin
     id 10 
     name rtoes
     direction -1.53549e-011 -4.21786e-011 1   
     length 1.34085   
     axis -90 -7.62852e-016 -20   XYZ
    dof rx
    limits (-90.0 20.0)
  end
  begin
     id 11 
     name lowerback
     direction -0.0522728 0.992594 -0.109658   
     length 2.05633   
     axis 0 0 0   XYZ
    dof rx ry rz
    limits (-20.0 45.0)
           (-30.0 30.0)
           (-30.0 30.0)
  end
  begin
     id 12 
     name upperback
     direction 0.00589338 0.999977 0.00335704   
     length 2.05845   
     axis 0 0 0   XYZ
    dof rx ry rz
    limits (-20.0 45.0)
           (-30.0 30.0)
           (-30.0 30.0)
  end
  begin
     id 13 
     name thorax
     direction 0.0292928 0.998059 0.0549487   
     length 2.09281   
     axis 0 0 0   XYZ
    dof rx ry rz
    limits (-20.0 45.0)
           (-30.0 30.0)
           (-30.0 30.0)
  end
  begin
     id 14 
     name lowerneck
     direction 0.0356368 0.980775 0.191858   
     length 1.84767   
     axis 0 0 0   XYZ
    dof rx ry rz
    limits (-20.0 45.0)
           (-30.0 30.0)
           (-30.0 30.0)
  end
  begin
     id 15 
     name upperneck
     direction -0.0227605 0.98931 -0.14404   
     length 1.89582   
     axis 0 0 0   XYZ
    dof rx ry rz
    limits (-20.0 45.0)
           (-30.0 30.0)
           (-30.0 30.0)
  end
  begin
     id 16
     name head
     direction -0.00932985 0.997511 -0.0698904  
     length 1.90213  
     axis 0 0 0   XYZ
    dof rx ry rz
    limits (-20.0 45.0)
           (-30.0 30.0)
           (-30.0 30.0)
  end
  begin
     id 17 
     name lclavicle
     direction 0.873442 0.479511 0.0846686  
     length 3.41193  
     axis 0 0 0   XYZ
    dof ry rz
    limits (-20.0 10.0)
           (0.0 20.0)
  end
  begin
     id 18 
     name lhumerus
     direction 1 -4.4897e-011 -5.62117e-018   
     length 5.59864   
     axis 180 -30 -90   XYZ
    dof rx ry rz
    limits (-60.0 90.0)
           (-90.0 90.0)
           (-90.0 90.0)
  end
  begin
     id 19
     name lradius
     direction 1 -4.48966e-011 -6.26295e-027   
     length 3.59542   
     axis 180 -30 -90   XYZ
    dof rx
    limits (-10.0 170.0)
  end
  begin
     id 20
     name lwrist
     direction 1 -4.48947e-011 -1.74096e-026   
     length 1.79771   
     axis 1.04567e-014 90 90   XYZ
    dof ry
    limits (-180.0 0.0)
 end
  begin
     id 21 
     name lhand
     direction 1 -4.49085e-011 -3.48469e-026   
     length 0.572014   
     axis 2.22196e-014 90 90   XYZ
    dof rx rz
    limits (-90.0 90.0)
           (-45.0 45.0)
  end
  begin
     id 22 
     name lfingers
     direction 1 -4.48884e-011 -6.96135e-026   
     length 0.461173   
     axis 4.44383e-014 90 90   XYZ
    dof rx
    limits (0.0 90.0)
  end
  begin
     id 23
     name lthumb
     direction 0.707107 -6.34976e-011 0.707107   
     length 0.662154   
     axis -90 45 -5.4397e-014   XYZ
    dof rx rz
    limits (-45.0 45.0)
           (-45.0 45.0)
  end
  begin
     id 24 
     name rclavicle
     direction -0.890242 0.443271 0.104786   
     length 3.46753  
     axis 0 0 0   XYZ 
    dof ry rz
    limits (-10.0 20.0)
           (-20.0 0.0)
  end
  begin
     id 25 
     name rhumerus
     direction -1 -4.48963e-011 -5.41723e-018  
     length 5.8094   
     axis 180 30 90   XYZ
    dof rx ry rz
    limits (-90.0 60.0)
           (-90.0 90.0)
           (-90.0 90.0)
  end
  begin
     id 26 
     name rradius
     direction -1 -4.48958e-011 -6.51059e-027   
     length 3.66953   
     axis 180 30 90   XYZ
    dof rx
    limits (-10.0 170.0)
  end
  begin
     id 27 
     name rwrist
     direction -1 -4.48975e-011 -1.74124e-026   
     length 1.83476   
     axis 1.04567e-014 -90 -90   XYZ
    dof ry
    limits (-180.0 0.0)
  end
  begin
     id 28
     name rhand
     direction -1 -4.49013e-011 -3.48326e-026   
     length 0.57843   
     axis 2.22196e-014 -90 -90   XYZ
    dof rx rz
    limits (-90.0 90.0)
           (-45.0 45.0)
  end
  begin
     id 29
     name rfingers
     direction -1 -4.49023e-011 -6.9669e-026   
     length 0.466345   
     axis 4.44383e-014 -90 -90   XYZ
    dof rx
    limits (0.0 90.0)
  end
  begin
     id 30
     name rthumb
     direction -0.707107 -6.34926e-011 0.707107   
     length 0.669581   
     axis -90 -45 5.4397e-014   XYZ
    dof rx rz
    limits (-45.0 45.0)
           (-45.0 45.0)
  end
:hierarchy
  begin
    root lhipjoint rhipjoint lowerback
    lhipjoint lfemur
    lfemur ltibia
    ltibia lfoot
    lfoot ltoes
    rhipjoint rfemur
    rfemur rtibia
    rtibia rfoot
    rfoot rtoes
    lowerback upperback
    upperback thorax
    thorax lowerneck lclavicle rclavicle
    lowerneck upperneck
    upperneck head
    lclavicle lhumerus
    lhumerus lradius
    lradius lwrist
    lwrist lhand lthumb
    lhand lfingers
    rclavicle rhumerus
    rhumerus rradius
    rradius rwrist
    rwrist rhand rthumb
    rhand rfingers
  end

#!OML:ASF H:\SkateBoarding\Project 1\Capture day 1\Session 1\Skater.ASF
:FULLY-SPECIFIED
:DEGREES
48
root -13.8827 19.0737 -16.9952 7.55834 48.4146 4.42988
lowerback 13.5829 -0.428682 -3.96892
upperback 0.387924 -1.15876 0.085935
thorax -7.13979 -0.418703 2.56035
lowerneck -19.2501 -5.38056 -3.12742
upperneck 34.9042 -7.11897 1.66849
head 15.7604 -3.00343 -0.0530897
rclavicle 2.16178e-014 -5.56597e-015
rhumerus -28.2228 5.00591 -83.961
rradius 44.0618
rwrist -12.2009
rhand -38.7854 -3.26987
rfingers 7.12502
rthumb -11.7967 -32.9176
lclavicle 2.16178e-014 -5.56597e-015
lhumerus -43.4737 -10.833 86.2129
lradius 49.3685
lwrist 33.118
lhand -26.9884 18.7181
lfingers 7.12502
lthumb -0.408912 48.6975
rfemur -28.5812 0.739159 13.5272
rtibia 53.7258
rfoot -33.7347 7.80965
rtoes -12.0627
lfemur -20.9387 -22.057 -10.9883
ltibia 44.0094
lfoot -6.31467 -7.99952
ltoes 2.64965
49
root -13.8553 18.9676 -16.7201 7.92571 48.0366 4.94359
lowerback 13.8434 -0.371088 -4.34395
upperback 0.462553 -1.1553 0.0119071
thorax -7.20103 -0.404234 2.69731
lowerneck -19.2501 -5.33222 -2.9443
upperneck 34.7139 -7.07418 1.5634
head 15.6504 -2.98201 -0.11866
rclavicle 8.04332e-014 -8.15017e-015
rhumerus -28.0116 5.23787 -83.8985
rradius 44.2939
rwrist -12.5997
rhand -38.9406 -3.28659
rfingers 7.12502
rthumb -11.9463 -32.9257
lclavicle 8.04332e-014 -8.15017e-015
lhumerus -42.8851 -10.5928 86.1419
lradius 48.9268
lwrist 33.1541
lhand -27.1817 18.8624
lfingers 7.12502
lthumb -0.595584 48.8413
rfemur -29.6633 0.58263 12.7676
rtibia 55.3715
rfoot -33.2127 9.63736
rtoes -9.89746
lfemur -20.3753 -22.297 -11.0801
ltibia 41.4718
lfoot -4.69983 -9.28288
ltoes 7.90867
50
root -13.8334 18.8552 -16.4443 8.15186 47.576 5.31282
lowerback 14.1596 -0.336806 -4.73845
upperback 0.550591 -1.18539 0.00397079
thorax -7.27429 -0.403998 2.92334
lowerneck -19.4035 -5.18831 -2.78915
upperneck 34.608 -6.85474 1.40091
head 15.6117 -2.89649 -0.175438
rclavicle -5.8716e-014 -1.86858e-014
rhumerus -27.677 5.57613 -83.8238
rradius 44.4295
rwrist -12.6978
rhand -38.8747 -3.49228
rfingers 7.12502
rthumb -11.8828 -33.1351
lclavicle -5.8716e-014 -1.86858e-014
lhumerus -42.3394 -10.3052 86.0878
lradius 48.5737
lwrist 33.3582
lhand -27.3143 18.6874
lfingers 7.12502
lthumb -0.723675 48.666
rfemur -30.7707 0.552102 12.1111
rtibia 57.0546
rfoot -32.8346 11.1148
rtoes -8.46672
lfemur -19.7183 -22.3748 -11.0924
ltibia 39.0626
lfoot -3.15703 -9.63903
ltoes 9.9511
51
root -13.7969 18.7502 -16.1681 8.3188 46.8744 5.73902
lowerback 14.4407 -0.248978 -4.98346
upperback 0.678053 -1.12957 -0.149105
thorax -7.29815 -0.371426 2.89141
lowerneck -19.474 -5.07491 -2.55108
upperneck 34.4474 -6.73724 1.30084
head 15.5301 -2.83588 -0.236409
rclavicle -5.63555e-014 5.56597e-015
rhumerus -27.3303 5.96461 -83.9058
rradius 44.5041
rwrist -13.1027
rhand -39.432 -3.17995
rfingers 7.12502
rthumb -12.4202 -32.7909
lclavicle -5.63555e-014 5.56597e-015
lhumerus -41.7502 -10.2342 85.9722
lradius 48.2741
lwrist 33.6392
lhand -27.4852 18.8334
lfingers 7.12502
lthumb -0.888705 48.8113
rfemur -31.7824 0.774317 11.3319
rtibia 58.7341
rfoot -33.0086 11.6834
rtoes -9.86552
lfemur -18.9942 -22.1032 -11.4791
ltibia 36.7755
lfoot -2.05418 -9.2107
ltoes 9.42889
52
root -13.7626 18.638 -15.8915 8.45419 46.1748 6.07068
lowerback 14.6439 -0.192812 -5.2077
upperback 0.787647 -1.10824 -0.28082
thorax -7.29436 -0.356732 2.8758
lowerneck -19.5157 -4.92715 -2.42474
upperneck 34.3195 -6.56987 1.31277
head 15.4685 -2.75226 -0.221299
rclavicle 6.8705e-014 -7.55382e-015
rhumerus -26.9743 6.35889 -83.9899
rradius 44.5585
rwrist -13.2912
rhand -39.6369 -3.02963
rfingers 7.12502
rthumb -12.6178 -32.6285
lclavicle 6.8705e-014 -7.55382e-015
lhumerus -41.201 -10.2638 85.8672
lradius 48.0596
lwrist 34.0434
lhand -27.7107 19.1293
lfingers 7.12502
lthumb -1.10655 49.1061
rfemur -32.8957 0.938962 10.6085
rtibia 60.4075
rfoot -32.8181 12.1177
rtoes -9.9178
lfemur -18.3216 -21.868 -11.7862
ltibia 34.8325
lfoot -0.770194 -8.85194
ltoes 9.71665
53
root -13.7272 18.5157 -15.6167 8.64282 45.435 6.48679
lowerback 14.8131 -0.0912281 -5.52384
upperback 0.874712 -1.04189 -0.412173
thorax -7.29824 -0.316765 2.90271
lowerneck -19.5308 -4.77766 -2.22784
upperneck 34.2393 -6.37761 1.19559
head 15.4139 -2.66642 -0.267331
rclavicle 9.94917e-014 -1.59028e-014
rhumerus -26.6902 6.66838 -84.0122
rradius 44.635
rwrist -13.4693
rhand -39.964 -2.51026
rfingers 7.12502
rthumb -12.9331 -32.0895
lclavicle 9.94917e-014 -1.59028e-014
lhumerus -40.7301 -10.5558 85.8706
lradius 47.9611
lwrist 34.5734
lhand -28.0081 19.5258
lfingers 7.12502
lthumb -1.39369 49.501
rfemur -34.0401 1.03654 9.80051
rtibia 62.0126
rfoot -32.2131 13.3529
rtoes -9.01773
lfemur -17.9263 -21.5198 -12.2447
ltibia 33.8629
lfoot 0.59067 -8.63643
ltoes 11.7085
54
root -13.6852 18.406 -15.3477 8.76573 44.6013 6.78207
lowerback 14.9801 -0.050534 -5.57877
upperback 0.920446 -1.01743 -0.570027
thorax -7.34656 -0.304486 2.7621
lowerneck -19.548 -4.6151 -2.16603
upperneck 34.1975 -6.15584 1.18096
head 15.3895 -2.57034 -0.242475
rclavicle 6.51765e-014 -1.46107e-014
rhumerus -26.3653 7.11522 -84.1123
rradius 44.6519
rwrist -13.6519
rhand -39.9779 -2.22923
rfingers 7.12502
rthumb -12.9464 -31.8076
lclavicle 6.51765e-014 -1.46107e-014
lhumerus -40.1427 -10.7621 85.8318
lradius 47.7878
lwrist 35.0166
lhand -27.8146 19.7713
lfingers 7.12502
lthumb -1.2069 49.7476
rfemur -35.2542 1.10039 9.03358
rtibia 63.5899
rfoot -31.8377 13.9062
rtoes -9.82716
lfemur -17.6056 -20.7929 -12.8669
ltibia 33.7785
lfoot 0.286347 -8.89137
ltoes 14.5067
55
root -13.647 18.3329 -15.0786 8.80265 43.753 6.99627
lowerback 14.9888 -0.00679012 -5.66296
upperback 1.06373 -0.974455 -0.674471
thorax -7.2011 -0.288684 2.68813
lowerneck -19.6549 -4.43451 -2.06087
upperneck 34.1642 -5.87909 1.0489
head 15.3818 -2.46176 -0.266372
rclavicle -7.00716e-015 2.60408e-014
rhumerus -25.9138 7.50474 -84.1422
rradius 44.7151
rwrist -13.5413
rhand -39.7488 -2.30128
rfingers 7.12502
rthumb -12.7256 -31.8935
lclavicle -7.00716e-015 2.60408e-014
lhumerus -39.3482 -11.023 85.8095
lradius 47.5884
lwrist 35.4103
lhand -27.9396 20.2058
lfingers 7.12502
lthumb -1.32759 50.1814
rfemur -36.3216 1.25118 8.3546
rtibia 65.012
rfoot -31.4639 14.3198
rtoes -9.98384
lfemur -16.5461 -19.8825 -13.4994
ltibia 34.7882
lfoot -3.37323 -10.5519
ltoes 13.1181
56
root -13.6009 18.1946 -14.8173 8.93766 42.8664 7.32884
lowerback 14.9998 0.0866794 -5.69635
upperback 1.13221 -0.867727 -0.869498
thorax -7.14554 -0.241198 2.4762
lowerneck -19.6509 -4.30422 -1.8432
upperneck 34.1874 -5.69104 0.841049
head 15.3699 -2.38561 -0.355534
rclavicle -8.26696e-014 2.16675e-014
rhumerus -25.6687 7.79744 -84.1928
rradius 44.8694
rwrist -13.7261
rhand -40.3568 -1.55917
rfingers 7.12502
rthumb -13.3117 -31.114
lclavicle -8.26696e-014 2.16675e-014
lhumerus -38.7144 -11.742 85.8589
lradius 47.659
lwrist 35.9132
lhand -27.7471 20.6602
lfingers 7.12502
lthumb -1.14167 50.6369
rfemur -37.6849 1.30717 7.47847
rtibia 66.6401
rfoot -30.9347 14.9702
rtoes -10.6102
lfemur -15.822 -19.8196 -13.8754
ltibia 36.1513
lfoot -5.46507 -11.9814
ltoes 11.2121
57
root -13.5593 18.0527 -14.5512 8.80459 41.9488 7.3606
lowerback 15.0838 0.270517 -5.52081
upperback 1.11852 -0.61633 -1.06268
thorax -7.23225 -0.125191 2.11927
lowerneck -19.4537 -4.206 -1.5324
upperneck 34.2318 -5.5784 0.619987
head 15.3211 -2.33072 -0.475428
rclavicle -5.73494e-014 -9.74045e-015
rhumerus -25.6964 7.81876 -84.2526
rradius 45.1518
rwrist -13.9555
rhand -39.9992 -1.63422
rfingers 7.12502
rthumb -12.967 -31.2113
lclavicle -5.73494e-014 -9.74045e-015
lhumerus -38.3091 -13.0272 85.9973
lradius 48.0927
lwrist 36.3626
lhand -27.5802 21.2971
lfingers 7.12502
lthumb -0.980477 51.2746
rfemur -39.0256 1.43775 6.86895
rtibia 68.2055
rfoot -30.2524 15.5928
rtoes -10.4641
lfemur -14.9848 -19.2344 -14.2637
ltibia 37.7875
lfoot -9.46726 -13.5597
ltoes 4.10886
58
root -13.5084 17.9289 -14.2901 8.70317 40.9865 7.26361
lowerback 14.947 0.269519 -5.30776
upperback 1.1734 -0.571467 -1.06912
thorax -7.10234 -0.114833 1.98194
lowerneck -19.5319 -3.90584 -1.37923
upperneck 34.3389 -5.04158 0.222191
head 15.362 -2.14242 -0.57155
rclavicle 2.34317e-014 1.5207e-014
rhumerus -25.4007 8.72873 -84.239
rradius 45.4746
rwrist -14.4486
rhand -40.4259 -1.38926
rfingers 7.12502
rthumb -13.3784 -30.9397
lclavicle 2.34317e-014 1.5207e-014
lhumerus -37.4181 -13.4726 86.1109
lradius 48.1674
lwrist 36.3277
lhand -27.4649 22.3491
lfingers 7.12502
lthumb -0.869102 52.3271
rfemur -40.3896 2.25917 6.26839
rtibia 69.6876
rfoot -30.0757 16.0663
rtoes -10.4011
lfemur -14.0464 -18.8786 -14.385
ltibia 38.8961
lfoot -11.0462 -15.1849
ltoes 6.79399
59
root -13.4592 17.8197 -14.0223 8.58994 40.095 7.37471
lowerback 15.1513 0.302616 -5.08977
upperback 1.12027 -0.520457 -1.24369
thorax -7.28074 -0.0945684 1.66297
lowerneck -19.4166 -3.69271 -1.04809
upperneck 34.4221 -4.69865 -0.178892
head 15.3454 -2.01375 -0.731275
rclavicle -2.06736e-014 -1.08338e-014
rhumerus -25.3417 9.251 -84.349
rradius 45.7162
rwrist -14.8505
rhand -40.6397 -1.02633
rfingers 7.12502
rthumb -13.5844 -30.5631
lclavicle -2.06736e-014 -1.08338e-014
lhumerus -36.3418 -14.2035 86.1222
lradius 47.8529
lwrist 36.3255
lhand -26.8107 22.2331
lfingers 7.12502
lthumb -0.23724 52.2128
rfemur -41.4914 2.49315 5.53895
rtibia 71.0391
rfoot -29.4013 16.8842
rtoes -9.87366
lfemur -13.1207 -19.1174 -14.5046
ltibia 39.8199
lfoot -12.6779 -16.1882
ltoes 6.25101
60
root -13.4124 17.6935 -13.7542 8.39833 39.1545 7.45086
lowerback 15.2253 0.469046 -5.06618
upperback 1.19705 -0.304981 -1.34417
thorax -7.25409 0.00611853 1.49726
lowerneck -19.3179 -3.54056 -0.651767
upperneck 34.3902 -4.48155 -0.549713
head 15.28 -1.92645 -0.911838
rclavicle 2.10463e-014 -4.27387e-015
rhumerus -25.2154 9.6767 -84.2566
rradius 46.1136
rwrist -15.2902
rhand -43.2703 0.906443
rfingers 7.12502
rthumb -16.1186 -28.4433
lclavicle 2.10463e-014 -4.27387e-015
lhumerus -34.9011 -15.2135 86.2489
lradius 47.552
lwrist 36.3704
lhand -26.9206 22.9959
lfingers 7.12502
lthumb -0.34343 52.9754
rfemur -42.6352 2.76929 4.84829
rtibia 72.4133
rfoot -28.8632 17.5361
rtoes -10.0741
lfemur -11.9073 -19.5297 -14.643
ltibia 40.4606
lfoot -13.0679 -18.048
ltoes 8.81936
61
root -13.3719 17.5483 -13.4839 8.00465 38.239 7.35217
lowerback 15.2963 0.45532 -5.33741
upperback 1.43392 -0.3392 -1.02795
thorax -7.03235 -0.0059508 1.99602
lowerneck -19.5657 -3.23724 -0.858831
upperneck 34.3598 -3.81817 -0.9227
head 15.3196 -1.73232 -0.915904
rclavicle 5.81942e-014 -1.03368e-014
rhumerus -24.6592 11.3991 -83.8995
rradius 46.4399
rwrist -16.4065
rhand -44.0118 1.97941
rfingers 7.12502
rthumb -16.8325 -27.311
lclavicle 5.81942e-014 -1.03368e-014
lhumerus -33.1105 -15.0607 86.5007
lradius 47.1823
lwrist 36.0535
lhand -26.6807 23.2229
lfingers 7.12502
lthumb -0.111686 53.2026
rfemur -43.7909 3.1174 4.32366
rtibia 73.8655
rfoot -28.2105 18.259
rtoes -9.7983
lfemur -10.4572 -19.9669 -14.5876
ltibia 40.9898
lfoot -12.6861 -20.1907
ltoes 11.7197
62
root -13.3366 17.3879 -13.2156 7.8424 37.3367 7.36516
lowerback 15.4364 0.589218 -5.17506
upperback 1.45834 -0.156044 -1.20578
thorax -7.0983 0.0768888 1.67597
lowerneck -19.5712 -3.13865 -0.658617
upperneck 34.4362 -3.74123 -0.942496
head 15.3511 -1.67603 -0.946185
rclavicle 3.05631e-014 -4.51241e-014
rhumerus -24.6159 12.0349 -83.8973
rradius 46.8474
rwrist -16.9635
rhand -44.327 2.31134
rfingers 7.12502
rthumb -17.1359 -26.953
lclavicle 3.05631e-014 -4.51241e-014
lhumerus -31.5767 -16.2551 86.3929
lradius 47.129
lwrist 36.0032
lhand -26.7791 23.2578
lfingers 7.12502
lthumb -0.20673 53.2374
rfemur -45.238 3.38182 3.69065
rtibia 75.4241
rfoot -27.6101 18.9545
rtoes -9.53265
lfemur -9.00607 -20.3424 -14.4607
ltibia 41.3808
lfoot -11.9678 -22.1709
ltoes 13.6403
